<?xml version="1.0" encoding="UTF-8"?>
<svg  viewBox="0 0 653 103" version="1.1" xmlns="http://www.w3.org/2000/svg" xmlns:xlink="http://www.w3.org/1999/xlink">
    <title>sf-logo-white-full</title>
    <desc>SOURCEFORGE LOGO</desc>
    <g id="Page-1" stroke="none" stroke-width="1" fill="none" fill-rule="evenodd">
        <g id="sf-logo-white-full">
            <path d="M66.9,54.5 C66.9,35.4 60.1,26.7 56.5,23.4 C55.8,22.8 54.7,23.3 54.8,24.3 C55.5,35.1 41.9,37.8 41.9,54.7 C41.9,54.7 41.9,54.8 41.9,54.8 C41.9,65.1 49.7,73.5 59.3,73.5 C68.9,73.5 76.7,65.1 76.7,54.8 C76.7,54.8 76.7,54.7 76.7,54.7 C76.7,49.9 74.9,45.3 73.1,41.9 C72.7,41.2 71.7,41.5 71.8,42.1 C75.1,56.7 66.9,65.7 66.9,54.5 Z" id="Path" fill="#F47C20"></path>
            <path d="M46.2,94.8 C45.8,94.8 45.3,94.6 45,94.3 L0.5,49.8 C-0.1,49.2 -0.1,48.1 0.5,47.4 L47.5,0.4 C47.8,0.2 48.2,0 48.6,0 L62.1,0 C62.9,0 63.4,0.5 63.6,1 C63.8,1.5 63.8,2.2 63.2,2.8 L19.1,47 C18.2,47.9 18.2,49.3 19.1,50.2 L54,85.2 C54.6,85.8 54.6,86.9 54,87.6 L47.3,94.4 C47,94.6 46.6,94.8 46.2,94.8 Z" id="Path" fill="#F47C20"></path>
            <path d="M55.1,102.6 C54.3,102.6 53.8,102.1 53.6,101.6 C53.4,101.1 53.4,100.4 54,99.8 L98.2,55.6 C98.6,55.2 98.9,54.6 98.9,54 C98.9,53.4 98.7,52.8 98.2,52.4 L63.2,17.4 C62.6,16.8 62.6,15.7 63.2,15 L70,8.2 C70.3,7.9 70.7,7.7 71.2,7.7 C71.7,7.7 72,8 72.3,8.3 L116.7,52.8 C117,53.1 117.2,53.5 117.2,54 C117.2,54.5 117,54.9 116.7,55.2 L69.7,102.2 C69.4,102.5 69,102.7 68.5,102.7 L55.1,102.7 L55.1,102.6 Z" id="Path" fill="#F47C20"></path>
            <g id="Group" transform="translate(136.000000, 24.000000)" fill="#FFFFFF">
                <g>
                    <path d="M31.2,8 C31,8.4 30.7,8.6 30.2,8.6 C29.9,8.6 29.5,8.4 29,7.9 C28.5,7.4 27.8,6.9 27,6.4 C26.1,5.8 25.1,5.3 23.8,4.9 C22.5,4.4 20.9,4.2 19,4.2 C17.1,4.2 15.5,4.5 14,5 C12.6,5.5 11.4,6.3 10.4,7.2 C9.4,8.1 8.7,9.2 8.2,10.4 C7.7,11.6 7.4,12.9 7.4,14.2 C7.4,16 7.8,17.4 8.5,18.6 C9.2,19.7 10.2,20.7 11.5,21.5 C12.7,22.3 14.1,23 15.7,23.5 C17.3,24.1 18.9,24.6 20.5,25.1 C22.1,25.6 23.7,26.2 25.3,26.9 C26.9,27.5 28.2,28.4 29.5,29.3 C30.8,30.2 31.7,31.5 32.5,32.9 C33.2,34.3 33.6,36.1 33.6,38.2 C33.6,40.4 33.2,42.4 32.5,44.3 C31.8,46.2 30.7,47.9 29.3,49.3 C27.9,50.7 26.1,51.8 24.1,52.7 C22,53.5 19.7,53.9 17.1,53.9 C13.7,53.9 10.7,53.3 8.3,52.1 C5.8,50.9 3.7,49.2 1.8,47.1 L2.8,45.5 C3.1,45.1 3.4,45 3.8,45 C4,45 4.3,45.1 4.6,45.4 C4.9,45.7 5.4,46.1 5.8,46.5 C6.3,46.9 6.9,47.4 7.6,47.9 C8.3,48.4 9.1,48.9 10,49.3 C10.9,49.7 11.9,50.1 13.1,50.4 C14.3,50.7 15.6,50.8 17.1,50.8 C19.2,50.8 21,50.5 22.6,49.9 C24.2,49.3 25.6,48.4 26.7,47.4 C27.8,46.4 28.7,45 29.3,43.6 C29.9,42.1 30.2,40.5 30.2,38.9 C30.2,37.1 29.8,35.6 29.1,34.4 C28.4,33.2 27.4,32.2 26.1,31.4 C24.9,30.6 23.5,29.9 21.9,29.4 C20.3,28.9 18.7,28.3 17.1,27.8 C15.5,27.3 13.9,26.7 12.3,26.1 C10.7,25.5 9.4,24.7 8.1,23.7 C6.9,22.7 5.9,21.5 5.1,20 C4.4,18.5 4,16.7 4,14.4 C4,12.7 4.3,11 5,9.4 C5.7,7.8 6.6,6.4 7.9,5.1 C9.2,3.9 10.7,2.9 12.6,2.1 C14.5,1.4 16.6,1 19,1 C21.7,1 24.1,1.4 26.3,2.3 C28.4,3.2 30.4,4.5 32.2,6.2 L31.2,8 Z" id="Path"></path>
                    <path d="M16.9,54.8 C13.4,54.8 10.3,54.2 7.8,52.9 C5.3,51.7 3,49.9 1.1,47.8 L0.8,47.5 L2.1,45.5 C2.7,44.8 3.2,44.7 3.6,44.7 C4,44.7 4.4,44.9 4.8,45.3 C5.1,45.6 5.6,46 6.1,46.4 C6.6,46.8 7.2,47.3 7.8,47.8 C8.5,48.3 9.2,48.7 10.1,49.1 C11,49.5 12,49.9 13.1,50.1 C14.2,50.4 15.5,50.5 17,50.5 C19,50.5 20.8,50.2 22.3,49.6 C23.8,49 25.1,48.2 26.2,47.2 C27.2,46.2 28.1,45 28.6,43.6 C29.2,42.2 29.4,40.7 29.4,39.1 C29.4,37.4 29.1,36 28.4,34.9 C27.7,33.8 26.8,32.9 25.6,32.1 C24.4,31.3 23.1,30.7 21.6,30.2 C20.1,29.7 18.5,29.1 16.8,28.6 C15.1,28.1 13.5,27.5 12,26.9 C10.4,26.2 8.9,25.4 7.7,24.4 C6.4,23.4 5.4,22 4.6,20.5 C3.8,18.9 3.4,17 3.4,14.7 C3.4,12.9 3.7,11.1 4.4,9.4 C5.1,7.7 6.1,6.2 7.4,4.9 C8.7,3.6 10.4,2.6 12.3,1.8 C14.2,1 16.5,0.6 18.9,0.6 C21.7,0.6 24.2,1 26.4,1.9 C28.6,2.8 30.6,4.2 32.5,6 L32.8,6.3 L31.7,8.4 C31.1,9.5 30,9.8 28.6,8.5 C28.1,8.1 27.5,7.6 26.6,7.1 C25.8,6.6 24.7,6.1 23.5,5.6 C22.3,5.2 20.8,4.9 18.9,4.9 C17.1,4.9 15.5,5.2 14.1,5.7 C12.8,6.2 11.6,6.9 10.7,7.8 C9.8,8.7 9.1,9.7 8.6,10.8 C8.1,11.9 7.9,13.2 7.9,14.4 C7.9,16 8.2,17.4 8.9,18.4 C9.6,19.5 10.5,20.4 11.7,21.2 C12.9,22 14.2,22.6 15.7,23.2 C17.2,23.7 18.8,24.3 20.5,24.8 C22.1,25.3 23.8,25.9 25.3,26.6 C26.9,27.3 28.4,28.1 29.6,29.1 C30.9,30.1 31.9,31.4 32.7,32.9 C33.5,34.4 33.9,36.3 33.9,38.5 C33.9,40.7 33.5,42.9 32.7,44.9 C31.9,46.9 30.8,48.6 29.3,50.1 C27.8,51.6 26,52.7 23.9,53.6 C22.1,54.3 19.6,54.8 16.9,54.8 Z M2.4,47.3 C4.1,49.2 6.1,50.7 8.4,51.8 C10.8,53 13.7,53.6 17,53.6 C19.5,53.6 21.8,53.2 23.8,52.4 C25.8,51.6 27.4,50.5 28.8,49.2 C30.1,47.9 31.2,46.2 31.9,44.4 C32.6,42.6 33,40.6 33,38.5 C33,36.5 32.6,34.8 32,33.4 C31.3,32.1 30.4,30.9 29.2,30 C28,29.1 26.7,28.3 25.2,27.6 C23.7,27 22.1,26.4 20.5,25.8 C18.9,25.3 17.3,24.7 15.7,24.2 C14.1,23.6 12.7,22.9 11.4,22.1 C10.1,21.3 9.1,20.2 8.3,19 C7.5,17.8 7.1,16.2 7.1,14.3 C7.1,12.9 7.4,11.5 7.9,10.2 C8.4,8.9 9.2,7.7 10.2,6.8 C11.2,5.8 12.5,5 14,4.5 C15.5,3.9 17.3,3.7 19.2,3.7 C21.1,3.7 22.8,3.9 24.2,4.4 C25.5,4.9 26.7,5.4 27.5,6 C28.4,6.6 29.1,7.1 29.6,7.6 C30.2,8.1 30.4,8.1 30.4,8.1 C30.5,8.1 30.7,8.1 30.8,7.8 L31.5,6.5 C29.9,5 28.1,3.8 26.2,3 C24.1,2.2 21.8,1.8 19.2,1.8 C16.9,1.8 14.8,2.2 13,2.9 C11.2,3.6 9.7,4.6 8.5,5.7 C7.3,6.9 6.4,8.2 5.7,9.8 C5.1,11.3 4.8,12.9 4.8,14.6 C4.8,16.7 5.2,18.5 5.9,19.9 C6.6,21.3 7.5,22.5 8.7,23.4 C9.9,24.3 11.2,25.1 12.7,25.7 C14.2,26.3 15.8,26.9 17.4,27.4 C19,27.9 20.6,28.4 22.2,29 C23.8,29.6 25.2,30.2 26.5,31.1 C27.8,31.9 28.9,33 29.6,34.3 C30.4,35.6 30.8,37.2 30.8,39.2 C30.8,41 30.5,42.6 29.9,44.2 C29.3,45.8 28.4,47.1 27.2,48.2 C26,49.3 24.6,50.2 22.9,50.9 C21.2,51.5 19.3,51.9 17.2,51.9 C15.7,51.9 14.3,51.7 13,51.4 C11.8,51.1 10.7,50.7 9.8,50.3 C8.9,49.9 8,49.4 7.3,48.8 C6.6,48.3 6,47.8 5.5,47.4 C5,47 4.6,46.6 4.3,46.3 C4,46 3.8,46 3.8,46 C3.7,46 3.5,46 3.3,46.3 L2.4,47.3 Z" id="Shape" fill-rule="nonzero"></path>
                </g>
                <g transform="translate(40.000000, 0.000000)" fill-rule="nonzero" id="Shape">
                    <path d="M50.7,27.6 C50.7,31.6 50.1,35.2 48.9,38.5 C47.7,41.8 46,44.6 43.8,46.9 C41.6,49.2 39,51 36,52.3 C33,53.6 29.6,54.2 25.9,54.2 C22.3,54.2 18.9,53.6 15.9,52.3 C12.9,51 10.3,49.3 8.1,46.9 C5.9,44.6 4.2,41.8 3,38.5 C1.8,35.2 1.2,31.6 1.2,27.6 C1.2,23.6 1.8,20 3,16.7 C4.2,13.4 5.9,10.6 8.1,8.3 C10.3,6 12.9,4.2 15.9,2.9 C18.9,1.6 22.3,1 25.9,1 C29.6,1 33,1.6 36,2.9 C39,4.2 41.6,5.9 43.8,8.3 C46,10.6 47.7,13.4 48.9,16.7 C50.1,20 50.7,23.6 50.7,27.6 Z M46.8,27.6 C46.8,24 46.3,20.7 45.3,17.8 C44.3,14.9 42.9,12.5 41.1,10.5 C39.3,8.5 37.1,7 34.5,5.9 C31.9,4.8 29.1,4.3 26,4.3 C22.9,4.3 20.1,4.8 17.5,5.9 C14.9,7 12.7,8.5 10.9,10.5 C9.1,12.5 7.6,14.9 6.6,17.8 C5.6,20.7 5.1,23.9 5.1,27.6 C5.1,31.2 5.6,34.5 6.6,37.4 C7.6,40.3 9,42.7 10.9,44.7 C12.7,46.7 14.9,48.2 17.5,49.3 C20.1,50.4 22.9,50.9 26,50.9 C29.1,50.9 32,50.4 34.5,49.3 C37.1,48.3 39.3,46.7 41.1,44.7 C42.9,42.7 44.3,40.3 45.3,37.4 C46.3,34.5 46.8,31.3 46.8,27.6 Z"></path>
                    <path d="M26,54.7 C22.3,54.7 18.8,54 15.8,52.8 C12.7,51.5 10,49.7 7.8,47.3 C5.6,44.9 3.8,42.1 2.6,38.7 C1.4,35.4 0.7,31.6 0.7,27.6 C0.7,23.6 1.3,19.8 2.6,16.5 C3.8,13.2 5.6,10.3 7.8,7.9 C10,5.5 12.7,3.7 15.8,2.4 C18.9,1.1 22.3,0.4 26,0.4 C29.8,0.4 33.2,1.1 36.3,2.3 C39.4,3.6 42.1,5.4 44.3,7.8 C46.5,10.2 48.3,13.1 49.5,16.4 C50.7,19.7 51.3,23.4 51.3,27.5 C51.3,31.6 50.7,35.3 49.5,38.6 C48.3,41.9 46.5,44.8 44.3,47.2 C42.1,49.6 39.4,51.4 36.3,52.7 C33.2,54.1 29.7,54.7 26,54.7 Z M26,1.7 C22.5,1.7 19.2,2.3 16.2,3.6 C13.3,4.8 10.7,6.6 8.6,8.8 C6.5,11 4.8,13.8 3.7,17 C2.5,20.2 1.9,23.8 1.9,27.7 C1.9,31.6 2.5,35.2 3.7,38.4 C4.9,41.6 6.5,44.3 8.6,46.6 C10.7,48.8 13.3,50.6 16.2,51.8 C19.1,53 22.4,53.6 26,53.6 C29.6,53.6 32.9,53 35.8,51.8 C38.7,50.6 41.3,48.8 43.4,46.6 C45.5,44.4 47.2,41.6 48.3,38.5 C49.5,35.3 50.1,31.7 50.1,27.8 C50.1,23.9 49.5,20.3 48.3,17.1 C47.1,13.9 45.5,11.2 43.4,8.9 C41.3,6.7 38.7,4.9 35.8,3.7 C32.9,2.3 29.6,1.7 26,1.7 Z"></path>
                </g>
                <g transform="translate(100.000000, 1.000000)">
                    <path d="M20.4,49.9 C22.9,49.9 25.1,49.5 27.1,48.6 C29.1,47.7 30.7,46.5 32.1,45 C33.5,43.5 34.5,41.6 35.2,39.6 C35.9,37.5 36.3,35.3 36.3,32.8 L36.3,0.7 L40,0.7 L40,32.8 C40,35.7 39.5,38.3 38.6,40.8 C37.7,43.3 36.4,45.4 34.7,47.3 C33,49.1 30.9,50.6 28.5,51.6 C26.1,52.6 23.3,53.2 20.3,53.2 C17.3,53.2 14.5,52.7 12.1,51.6 C9.7,50.5 7.6,49.1 5.9,47.3 C4.2,45.5 2.9,43.3 2,40.8 C1.1,38.3 0.6,35.6 0.6,32.8 L0.6,0.7 L4.4,0.7 L4.4,32.7 C4.4,35.1 4.8,37.4 5.5,39.5 C6.2,41.6 7.3,43.4 8.6,44.9 C10,46.4 11.6,47.6 13.6,48.5 C15.6,49.5 17.9,49.9 20.4,49.9 Z" id="Path"></path>
                    <path d="M20.4,53.8 C17.3,53.8 14.5,53.3 12,52.2 C9.5,51.1 7.3,49.6 5.6,47.7 C3.9,45.8 2.5,43.5 1.6,41 C0.7,38.5 0.2,35.7 0.2,32.8 L0.2,0.1 L5.2,0.1 L5.2,32.8 C5.2,35.1 5.6,37.3 6.2,39.4 C6.9,41.4 7.9,43.2 9.2,44.6 C10.5,46.1 12.1,47.2 14,48.1 C15.9,48.9 18,49.4 20.4,49.4 C22.8,49.4 25,49 26.8,48.2 C28.7,47.4 30.3,46.2 31.6,44.7 C32.9,43.2 33.9,41.5 34.6,39.5 C35.3,37.5 35.6,35.3 35.6,32.9 L35.6,0.1 L40.6,0.1 L40.6,32.8 C40.6,35.7 40.1,38.5 39.2,41 C38.3,43.5 36.9,45.8 35.2,47.7 C33.5,49.6 31.3,51.1 28.8,52.2 C26.3,53.3 23.5,53.8 20.4,53.8 Z M1.3,1.3 L1.3,32.8 C1.3,35.6 1.7,38.2 2.6,40.6 C3.5,43 4.7,45.1 6.4,46.9 C8,48.7 10,50.1 12.4,51.1 C14.7,52.1 17.4,52.6 20.4,52.6 C23.3,52.6 26,52.1 28.4,51.1 C30.7,50.1 32.8,48.7 34.4,46.9 C36,45.1 37.3,43 38.2,40.6 C39.1,38.2 39.5,35.6 39.5,32.8 L39.5,1.3 L37,1.3 L37,32.8 C37,35.3 36.6,37.6 35.9,39.8 C35.2,42 34.1,43.9 32.6,45.5 C31.2,47.1 29.4,48.4 27.4,49.3 C25.4,50.2 23,50.7 20.5,50.7 C17.9,50.7 15.6,50.2 13.6,49.3 C11.6,48.4 9.8,47.1 8.4,45.5 C7,43.9 5.9,42 5.2,39.8 C4.5,37.7 4.1,35.3 4.1,32.8 L4.1,1.3 L1.3,1.3 Z" id="Shape" fill-rule="nonzero"></path>
                </g>
                <g transform="translate(151.000000, 1.000000)">
                    <path d="M10.5,26.3 C11.5,26.3 11.4,26.3 11.4,26.3 L13.6,26.3 C15.9,26.3 18,26 19.8,25.5 C21.6,24.9 23.2,24.2 24.4,23.1 C25.7,22.1 26.6,20.8 27.3,19.4 C28,18 28.3,16.3 28.3,14.5 C28.3,10.8 27.1,8.1 24.7,6.3 C22.3,4.5 18.8,3.6 14.1,3.6 L4.6,3.6 L4.6,26.3 L4.6,29.1 L4.6,52.6 L0.9,52.6 L0.9,0.7 L14.1,0.7 C20.1,0.7 24.6,1.9 27.5,4.2 C30.5,6.5 31.9,9.9 31.9,14.4 C31.9,16.4 31.6,18.2 30.9,19.8 C30.2,21.4 29.2,22.9 27.9,24.1 C26.6,25.3 25.1,26.4 23.3,27.1 C21.5,27.9 19.4,28.4 17.2,28.7 C17.8,29.1 18.3,29.6 18.8,30.2 L36.7,52.6 L33.4,52.6 C33,52.6 32.7,52.5 32.4,52.4 C32.1,52.3 31.8,52 31.6,51.7 L15,30.7 C14.6,30.2 14.1,29.8 13.7,29.6 C13.2,29.4 10.3,29.3 9.3,29.3 C9.3,26.6 9.7,26.3 10.5,26.3 Z" id="Path"></path>
                    <path d="M38,53.2 L33.5,53.2 C33,53.2 32.6,53.1 32.2,52.9 C31.8,52.7 31.5,52.4 31.2,52 L14.6,31 C14.2,30.5 13.9,30.2 13.5,30 C13.1,29.9 10.7,29.7 9.4,29.7 L8.8,29.7 L8.8,27.1 C8.8,26.2 9,25.7 10.6,25.7 C11.5,25.7 11.6,25.7 11.6,25.7 L13.8,25.7 C16,25.7 18,25.4 19.8,24.9 C21.5,24.4 23,23.6 24.2,22.6 C25.4,21.6 26.3,20.5 26.9,19.1 C27.5,17.7 27.8,16.2 27.8,14.5 C27.8,11 26.7,8.5 24.4,6.8 C22.1,5.1 18.7,4.2 14.2,4.2 L5.3,4.2 L5.3,53.1 L0.3,53.1 L0.3,0.1 L14.2,0.1 C20.3,0.1 24.9,1.3 28,3.7 C31.1,6.1 32.7,9.7 32.7,14.4 C32.7,16.5 32.3,18.4 31.6,20.1 C30.9,21.8 29.8,23.3 28.5,24.6 C27.2,25.9 25.5,26.9 23.7,27.8 C22.2,28.4 20.6,28.9 18.8,29.2 C19,29.4 19.2,29.6 19.4,29.9 L38,53.2 Z M9.9,28.5 C11,28.5 13.3,28.6 13.9,28.9 C14.5,29.2 15,29.6 15.5,30.2 L32.1,51.2 C32.3,51.5 32.5,51.7 32.7,51.8 C32.9,51.9 33.1,52 33.4,52 L35.4,52 L18.3,30.6 C17.9,30 17.4,29.6 16.9,29.3 L15.4,28.4 L17.2,28.2 C19.4,28 21.4,27.5 23.1,26.7 C24.8,25.9 26.3,25 27.6,23.8 C28.8,22.6 29.8,21.3 30.4,19.7 C31,18.1 31.4,16.4 31.4,14.5 C31.4,10.2 30,7 27.2,4.8 C24.4,2.6 20,1.5 14.2,1.5 L1.6,1.5 L1.6,52 L4.1,52 L4.1,3 L14.2,3 C18.9,3 22.6,3.9 25.1,5.8 C27.7,7.7 29,10.6 29,14.5 C29,16.4 28.6,18.1 28,19.6 C27.3,21.1 26.3,22.4 24.9,23.5 C23.6,24.6 22,25.4 20.1,26 C18.2,26.6 16.1,26.9 13.7,26.9 L11.5,26.9 C11.4,26.9 11.3,26.9 10.6,26.9 C10.3,26.9 10,26.9 9.9,28.5 Z" id="Shape" fill-rule="nonzero"></path>
                </g>
                <g transform="translate(190.000000, 0.000000)">
                    <path d="M41.6,44.8 C41.8,44.8 42.1,44.9 42.2,45.1 L43.7,46.7 C42.6,47.8 41.5,48.9 40.2,49.8 C38.9,50.7 37.5,51.5 36,52.1 C34.5,52.7 32.8,53.2 31.1,53.6 C29.3,54 27.3,54.1 25.2,54.1 C21.6,54.1 18.3,53.5 15.3,52.2 C12.3,50.9 9.7,49.2 7.6,46.8 C5.5,44.5 3.8,41.7 2.6,38.4 C1.4,35.1 0.8,31.5 0.8,27.5 C0.8,23.6 1.4,20 2.7,16.7 C3.9,13.4 5.7,10.7 7.9,8.3 C10.1,6 12.8,4.2 15.9,2.9 C19,1.6 22.5,1 26.2,1 C28.1,1 29.8,1.1 31.4,1.4 C33,1.7 34.4,2.1 35.8,2.6 C37.2,3.1 38.4,3.8 39.6,4.6 C40.8,5.4 42,6.3 43.1,7.3 L42,8.9 C41.8,9.2 41.5,9.3 41.1,9.3 C40.9,9.3 40.6,9.2 40.3,8.9 C40,8.6 39.5,8.3 39,7.9 C38.5,7.5 37.8,7.1 37.1,6.7 C36.4,6.2 35.5,5.8 34.4,5.5 C33.4,5.1 32.2,4.8 30.8,4.5 C29.5,4.2 27.9,4.1 26.2,4.1 C23,4.1 20.1,4.6 17.5,5.7 C14.9,6.8 12.6,8.3 10.7,10.4 C8.8,12.4 7.3,14.9 6.2,17.7 C5.1,20.5 4.6,23.8 4.6,27.4 C4.6,31.1 5.1,34.3 6.2,37.2 C7.3,40.1 8.7,42.5 10.6,44.5 C12.5,46.5 14.7,48 17.2,49.1 C19.7,50.2 22.5,50.7 25.4,50.7 C27.3,50.7 28.9,50.6 30.4,50.3 C31.9,50.1 33.2,49.7 34.4,49.2 C35.6,48.7 36.8,48.1 37.8,47.4 C38.9,46.7 39.9,45.9 40.9,44.9 C41,44.8 41.1,44.7 41.2,44.7 C41.3,44.9 41.5,44.8 41.6,44.8 Z" id="Path"></path>
                    <path d="M25.1,54.8 C21.4,54.8 18,54.1 15,52.9 C11.9,51.6 9.3,49.8 7.1,47.4 C4.9,45 3.2,42.2 2,38.8 C0.8,35.5 0.2,31.7 0.2,27.7 C0.2,23.7 0.8,20 2.1,16.7 C3.4,13.4 5.2,10.5 7.4,8.1 C9.7,5.7 12.5,3.8 15.6,2.5 C18.8,1.2 22.3,0.5 26.2,0.5 C28.1,0.5 29.9,0.6 31.5,0.9 C33.1,1.2 34.6,1.6 36,2.1 C37.4,2.6 38.7,3.3 39.9,4.1 C41.1,4.9 42.3,5.8 43.5,6.9 L43.9,7.3 L42.5,9.4 C42.3,9.7 41.9,10.1 41.1,10.1 C40.7,10.1 40.4,9.9 39.9,9.6 C39.6,9.3 39.1,9 38.6,8.7 C38.1,8.3 37.5,7.9 36.7,7.5 C36,7.1 35.1,6.7 34.1,6.3 C33.1,5.9 31.9,5.6 30.6,5.4 C29.3,5.2 27.8,5 26.1,5 C23,5 20.2,5.5 17.6,6.6 C15.1,7.7 12.8,9.2 11,11.1 C9.2,13 7.7,15.4 6.7,18.2 C5.7,21 5.1,24.2 5.1,27.6 C5.1,31.2 5.6,34.4 6.6,37.2 C7.6,40 9,42.4 10.8,44.3 C12.6,46.2 14.7,47.7 17.2,48.7 C19.6,49.7 22.3,50.2 25.2,50.2 C27,50.2 28.7,50.1 30.1,49.8 C31.5,49.6 32.8,49.2 34,48.7 C35.2,48.2 36.3,47.6 37.3,47 C38.3,46.3 39.3,45.5 40.3,44.6 C40.5,44.4 40.6,44.4 40.8,44.3 C41.3,44 42.1,44.1 42.5,44.6 L44.4,46.6 L44,47 C42.9,48.2 41.7,49.2 40.4,50.2 C39.1,51.1 37.7,52 36.1,52.6 C34.6,53.3 32.9,53.8 31,54.1 C29.3,54.6 27.3,54.8 25.1,54.8 Z M26.2,1.7 C22.5,1.7 19.1,2.3 16.1,3.6 C13.1,4.8 10.4,6.6 8.3,8.9 C6.1,11.2 4.4,13.9 3.2,17.1 C2,20.3 1.4,23.8 1.4,27.7 C1.4,31.6 2,35.2 3.2,38.4 C4.4,41.6 6,44.3 8.1,46.6 C10.2,48.8 12.7,50.6 15.6,51.8 C18.5,53 21.7,53.6 25.2,53.6 C27.3,53.6 29.2,53.4 31,53.1 C32.7,52.8 34.4,52.3 35.8,51.6 C37.3,51 38.6,50.2 39.8,49.3 C40.9,48.5 41.9,47.6 42.8,46.7 L41.7,45.5 C41.6,45.4 41.5,45.4 41.4,45.5 C41.3,45.5 41.2,45.6 41.1,45.7 C40.1,46.6 39,47.5 37.9,48.2 C36.8,48.9 35.6,49.6 34.4,50.1 C33.1,50.6 31.7,51 30.3,51.2 C28.8,51.4 27.1,51.6 25.2,51.6 C22.2,51.6 19.3,51 16.7,50 C14.1,48.9 11.8,47.3 9.9,45.3 C8,43.3 6.5,40.7 5.4,37.8 C4.3,34.9 3.8,31.5 3.8,27.8 C3.8,24.2 4.3,20.9 5.4,17.9 C6.5,15 8,12.4 10,10.4 C12,8.3 14.3,6.7 17,5.6 C19.7,4.5 22.7,3.9 25.9,3.9 C27.6,3.9 29.2,4 30.6,4.3 C32,4.6 33.2,4.9 34.3,5.3 C35.4,5.7 36.3,6.1 37.1,6.6 C37.9,7.1 38.5,7.5 39,7.9 C39.5,8.3 40,8.6 40.3,8.9 C40.6,9.2 40.8,9.2 40.8,9.2 C41.1,9.2 41.2,9.1 41.2,9 L42,7.8 C41,6.9 40,6.2 39,5.5 C37.8,4.7 36.6,4.1 35.3,3.6 C34,3.1 32.5,2.7 31,2.4 C29.7,1.9 28,1.7 26.2,1.7 Z" id="Shape" fill-rule="nonzero"></path>
                </g>
                <g transform="translate(242.000000, 1.000000)">
                    <polygon id="Path" points="32.3 0.7 32.3 3.8 5 3.8 5 24.8 27.7 24.8 27.7 27.8 5 27.8 5 49.4 32.3 49.4 32.3 52.5 1.2 52.5 1.2 0.7"></polygon>
                    <path d="M32.9,53.2 L0.6,53.2 L0.6,0.1 L32.9,0.1 L32.9,4.4 L5.6,4.4 L5.6,24.1 L28.3,24.1 L28.3,28.4 L5.6,28.4 L5.6,48.8 L32.9,48.8 L32.9,53.2 Z M1.8,52 L31.7,52 L31.7,50.1 L4.4,50.1 L4.4,27.2 L27.1,27.2 L27.1,25.4 L4.4,25.4 L4.4,3.2 L31.7,3.2 L31.7,1.3 L1.8,1.3 L1.8,52 Z" id="Shape" fill-rule="nonzero"></path>
                </g>
                <polygon id="Path" points="320.8 1.1 320.8 9 297.3 9 297.3 24.7 317.1 24.7 317.1 32.6 297.3 32.6 297.3 54.2 287.4 54.2 287.4 1.2 320.8 1.2"></polygon>
                <path d="M378.3,27.6 C378.3,31.5 377.7,35.1 376.4,38.4 C375.1,41.7 373.3,44.6 370.9,47 C368.6,49.4 365.7,51.3 362.4,52.7 C359.1,54.1 355.4,54.7 351.4,54.7 C347.4,54.7 343.7,54 340.4,52.7 C337.1,51.3 334.3,49.5 331.9,47 C329.5,44.6 327.7,41.7 326.4,38.4 C325.1,35.1 324.5,31.5 324.5,27.6 C324.5,23.7 325.1,20.1 326.4,16.8 C327.7,13.5 329.5,10.6 331.9,8.2 C334.3,5.8 337.1,3.9 340.4,2.5 C343.7,1.1 347.4,0.5 351.4,0.5 C355.4,0.5 359.1,1.2 362.4,2.6 C365.7,4 368.5,5.9 370.9,8.3 C373.2,10.7 375.1,13.6 376.4,16.9 C377.6,20.1 378.3,23.7 378.3,27.6 Z M368.2,27.6 C368.2,24.7 367.8,22.1 367,19.8 C366.2,17.5 365.1,15.5 363.7,13.9 C362.3,12.3 360.5,11.1 358.4,10.2 C356.3,9.3 354,8.9 351.4,8.9 C348.8,8.9 346.5,9.3 344.4,10.2 C342.3,11.1 340.6,12.3 339.1,13.9 C337.6,15.5 336.5,17.5 335.7,19.8 C334.9,22.1 334.5,24.7 334.5,27.6 C334.5,30.5 334.9,33.1 335.7,35.4 C336.5,37.7 337.6,39.7 339.1,41.3 C340.6,42.9 342.3,44.1 344.4,45 C346.5,45.9 348.8,46.3 351.4,46.3 C354,46.3 356.3,45.9 358.4,45 C360.5,44.1 362.2,42.9 363.7,41.3 C365.1,39.7 366.2,37.7 367,35.4 C367.8,33.1 368.2,30.5 368.2,27.6 Z" id="Shape" fill-rule="nonzero"></path>
                <path d="M398.9,26.4 L401.2,26.4 C403.1,26.4 404.7,26.2 406.1,25.7 C407.5,25.2 408.6,24.6 409.5,23.8 C410.4,23 411.1,22 411.5,20.9 C411.9,19.8 412.2,18.5 412.2,17.2 C412.2,14.5 411.3,12.4 409.5,11 C407.7,9.6 405,8.8 401.4,8.8 L395,8.8 L395,26.4 L395,33.5 L395,54.2 L385.1,54.2 L385.1,1.2 L401.3,1.2 C404.9,1.2 408,1.6 410.6,2.3 C413.2,3 415.3,4.1 416.9,5.4 C418.5,6.7 419.8,8.4 420.5,10.2 C421.3,12.1 421.7,14.1 421.7,16.4 C421.7,18.2 421.4,19.9 420.9,21.5 C420.4,23.1 419.6,24.5 418.6,25.8 C417.6,27.1 416.4,28.2 414.9,29.2 C413.4,30.2 411.8,31 409.9,31.5 C411.1,32.2 412.2,33.2 413.1,34.5 L426.4,54.1 L417.5,54.1 C416.6,54.1 415.9,53.9 415.3,53.6 C414.7,53.3 414.2,52.8 413.8,52.1 C413.8,52.1 402.7,35.1 402.7,35.1 C402.4,34.7 401.8,33.8 401.2,33.7 C400,33.7 398.8,33.7 397.7,33.7 C397.7,33.7 397.7,27.7 397.7,27.3 C397.8,26.4 398.9,26.4 398.9,26.4 Z" id="Path"></path>
                <path d="M455.4,46.9 C457.6,46.9 459.6,46.7 461.2,46.3 C462.8,45.9 464.4,45.3 465.9,44.6 L465.9,32.6 L459.3,32.6 C458.7,32.6 458.2,32.4 457.8,32.1 C457.4,31.7 457.2,31.3 457.2,30.8 L457.2,25.2 L474.8,25.2 L474.8,49 C473.5,50 472.1,50.8 470.6,51.5 C469.1,52.2 467.6,52.8 465.9,53.3 C464.2,53.8 462.5,54.1 460.6,54.3 C458.7,54.5 456.7,54.6 454.5,54.6 C450.6,54.6 447.1,53.9 443.8,52.6 C440.5,51.3 437.7,49.4 435.4,47 C433,44.6 431.2,41.7 429.8,38.4 C428.5,35.1 427.8,31.4 427.8,27.5 C427.8,23.5 428.4,19.9 429.7,16.5 C431,13.2 432.8,10.3 435.2,7.9 C437.6,5.5 440.5,3.6 443.9,2.3 C447.3,1 451.1,0.3 455.3,0.3 C459.6,0.3 463.4,0.9 466.5,2.2 C469.7,3.5 472.3,5.2 474.5,7.2 L471.6,11.7 C471,12.6 470.3,13.1 469.4,13.1 C468.8,13.1 468.2,12.9 467.6,12.5 C466.8,12 466,11.6 465.2,11.1 C464.4,10.6 463.5,10.2 462.5,9.9 C461.5,9.6 460.4,9.3 459.2,9.1 C458,8.9 456.5,8.8 454.9,8.8 C452.3,8.8 449.9,9.2 447.8,10.1 C445.7,11 443.9,12.2 442.4,13.9 C440.9,15.5 439.8,17.5 439,19.8 C438.2,22.1 437.8,24.7 437.8,27.5 C437.8,30.6 438.2,33.3 439.1,35.7 C440,38.1 441.2,40.1 442.7,41.7 C444.2,43.3 446.1,44.6 448.2,45.5 C450.3,46.4 452.9,46.9 455.4,46.9 Z" id="Path"></path>
                <path d="M509.7,32.8 L493.6,32.8 L493.6,46.2 L517,46.2 L517,54.1 L483.6,54.1 L483.6,1.1 L517,1.1 L517,9 L493.5,9 L493.5,25.3 L512,25.3 L512,31.1 C512,31.1 511.9,32.8 509.7,32.8 Z" id="Path"></path>
            </g>
        </g>
    </g>
</svg>